<svg xmlns="http://www.w3.org/2000/svg" width="19" height="19" viewBox="0 0 32 32"><path d="M21 13v-3l-6-7H4.003A2.005 2.005 0 002 5.007v22.985a2 2 0 001.997 2.007h15.005a1.998 1.998 0 001.997-1.991v-2.009h7.993A3.002 3.002 0 0031.999 23v-7.002a2.997 2.997 0 00-3.007-2.999h-7.993zm-1 13v2.007A.997.997 0 0119 29H4c-.545 0-1-.446-1-.995V4.996c0-.54.446-.995.996-.995H14v4.994c0 1.119.895 2.006 1.998 2.006H20v2h-7.993A3.002 3.002 0 009 16v7.002a2.997 2.997 0 003.007 2.999H20zM15 4.5l4.7 5.5h-3.703C15.451 10 15 9.548 15 8.991V4.5zM11.995 14h17.011a2 2 0 011.995 1.992v7.016A1.999 1.999 0 0129.006 25H11.995A2 2 0 0110 23.008v-7.016C10 14.9 10.893 14 11.995 14zM25 19v-2h4v-1h-5v7h1v-3h3v-1h-3zm-13-1v-2h2.995a2 2 0 110 4H13v3h-1v-5zm1-1v2h2.001A.997.997 0 0016 18c0-.552-.443-1-.999-1H13zm5-1h2.995c1.111 0 2.005.898 2.005 2.006v2.988A1.999 1.999 0 0120.995 23H18v-7zm1 1v5h2.001A.997.997 0 0022 21v-3c0-.552-.443-1-.999-1H19z"/></svg>