<svg xmlns="http://www.w3.org/2000/svg" width="270.068" height="202.682" viewBox="0 0 39359 29538" shape-rendering="geometricPrecision" text-rendering="geometricPrecision" image-rendering="optimizeQuality" fill-rule="evenodd" clip-rule="evenodd"><defs><style>.fil0{fill:#163e73}</style></defs><g id="Слой_x0020_1"><g id="_914511216144"><path class="fil0" d="M242 13002c1507 1827 3577 3024 5927 3337-75 77-135 189-195 259-1797 155-3422-227-4964-1171-318-769-599-1587-768-2425z"/><path class="fil0" d="M6848 15603c-98 89-258 248-332 338-2751-577-5015-2260-6480-4654-109-1508 30-3000 431-4458 553 3844 2877 7070 6381 8774z"/><path class="fil0" d="M7963 14728c-224 146-560 368-784 569-3677-2312-5710-6054-6005-10345C2319 2713 3319 1527 5180 0c-2500 5554-778 11352 2783 14728z"/><path class="fil0" d="M10807 2673c2814 1798 6742 6891 4907 11476-1464 3658-4448 4580-5476 5231-1029 650-3041 2478-2296 5303-2155-922-2882-3138-2176-5146 1570-4466 5113-3809 6120-9789 454-2696-507-5972-1079-7075zM1464 16430c1345 733 2760 944 4246 565-44 69-141 257-188 323-1041 527-2136 542-3290 348-303-430-479-768-768-1236zm1224 1884c858 139 1814-78 2584-514l-127 341c-484 551-1268 753-1918 783-235-186-370-417-539-610z"/><path d="M10554 23467c283 0 523-101 683-287l-206-197c-126 138-280 204-460 204-356 0-614-251-614-605s258-604 614-604c180 0 334 66 460 201l206-194c-160-187-400-288-681-288-528 0-921 372-921 885 0 514 393 885 919 885zm1300-292v-475h831v-263h-831v-447h937v-268h-1256v1721h1290v-268h-971zm2461-627c160-69 253-199 253-384 0-285-231-442-615-442h-769v1721h816c428 0 652-180 652-477 0-217-121-359-337-418zm-816-580h427c207 0 318 83 318 246 0 159-111 243-318 243h-427v-489zm491 1229h-491v-507h491c222 0 340 79 340 251s-118 256-340 256zm1345-22v-475h831v-263h-831v-447h937v-268h-1257v1721h1291v-268h-971zm2035-1453h-708v1721h320v-497h388c453 0 733-233 733-612 0-381-280-612-733-612zm-14 954h-374v-684h374c280 0 425 126 425 342s-145 342-425 342zm1870 791c534 0 927-373 927-885 0-511-393-885-927-885-533 0-926 376-926 885s393 885 926 885zm0-280c-346 0-604-253-604-605 0-351 258-604 604-604 347 0 605 253 605 604 0 352-258 605-605 605zm1175-300h676v-256h-676v256zm2190 556h362l-610-888 588-833h-340l-494 720h-329v-720h-315v1721h315v-726h320l503 726zm1950 0h334l-777-1721h-314l-775 1721h330l169-399h861l172 399zm-924-649l322-752 324 752h-646zm2654-246c160-69 254-199 254-384 0-285-232-442-615-442h-769v1721h816c427 0 651-180 651-477 0-217-120-359-337-418zm-816-580h428c206 0 317 83 317 246 0 159-111 243-317 243h-428v-489zm492 1229h-492v-507h492c221 0 339 79 339 251s-118 256-339 256zm2163 246h361l-609-888 587-833h-339l-494 720h-329v-720h-315v1721h315v-726h319l504 726zm1949 0h335l-777-1721h-315l-774 1721h329l170-399h860l172 399zm-924-649l322-752 325 752h-647zm2426-249c160-66 258-199 258-371 0-305-327-484-705-484-192 0-396 44-578 143l101 258c150-89 322-131 469-131 217 0 389 89 389 254 0 135-113 218-305 218h-376v251h401c216 0 351 76 351 231 0 185-206 285-452 285-175 0-369-51-524-157l-103 234c202 130 443 191 666 191 394 0 738-187 738-506 0-199-126-352-330-416zm1483 922c282 0 523-101 683-287l-207-197c-125 138-280 204-459 204-357 0-615-251-615-605s258-604 615-604c179 0 334 66 459 201l207-194c-160-187-401-288-681-288-528 0-922 372-922 885 0 514 394 885 920 885zm2119-24h361l-610-888 588-833h-339l-495 720h-329v-720h-315v1721h315v-726h320l504 726zm639 0h297l924-1220v1220h315v-1721h-298l-924 1222v-1222h-314v1721zm2785-1837c295 0 447-127 449-356h-221c-5 123-88 189-228 189-143 0-222-66-224-189h-224c3 229 150 356 448 356zm-765 1837h298l924-1220v1220h315v-1721h-298l-924 1222v-1222h-315v1721zm-26808 4337l-524 1011-509-1011h-342l686 1283-27 42c-71 113-155 160-255 160-52 0-106-12-168-32l-78 251c86 37 172 54 253 54 209 0 398-118 531-369l747-1389h-314zm1782 0v711h-890v-711h-320v1721h320v-737h890v737h319v-1721h-319zm804 1721h297l924-1219v1219h315v-1721h-298l-924 1222v-1222h-314v1721zm3151-895c160-69 253-199 253-383 0-285-231-443-615-443h-769v1721h816c428 0 652-179 652-477 0-216-121-359-337-418zm-816-580h427c207 0 318 84 318 246 0 160-111 243-318 243h-427v-489zm491 1229h-491v-506h491c222 0 340 78 340 251 0 172-118 255-340 255zm1345-22v-474h831v-263h-831v-448h937v-268h-1257v1721h1291v-268h-971zm2035-1453h-708v1721h320v-497h388c453 0 733-233 733-612 0-381-280-612-733-612zm-14 954h-374v-683h374c280 0 425 125 425 341 0 217-145 342-425 342zm1865 792c283 0 524-101 684-288l-207-197c-125 138-280 204-459 204-357 0-615-250-615-604s258-605 615-605c179 0 334 66 459 202l207-195c-160-187-401-287-681-287-529 0-922 371-922 885 0 513 393 885 919 885zm984-25h297l924-1219v1219h315v-1721h-298l-924 1222v-1222h-314v1721zm3266-1721h-1455v271h568v1450h317v-1450h570v-271zm595 1453v-474h831v-263h-831v-448h937v-268h-1256v1721h1290v-268h-971zm2576-1453h-1455v271h568v1450h317v-1450h570v-271zm-17332-2173c0-453-327-723-907-753v-174h-295v174c-580 30-909 298-909 753 0 452 329 720 909 749v182h295v-182c580-24 907-297 907-749zm-907 499v-998c388 27 600 194 600 496s-207 472-600 502zm-892-499c0-305 201-470 597-499v998c-381-32-597-197-597-499zm2455 594v-474h831v-263h-831v-447h937v-268h-1256v1720h1290v-268h-971zm2785-2v-1450h-1261l-19 545c-17 504-74 895-307 905h-74l-3 637h298v-367h1320v367h295v-637h-249zm-1000-875l12-305h674v1180h-873c133-138 172-484 187-875zm1868 877v-474h831v-263h-831v-447h937v-268h-1256v1720h1290v-268h-971zm2036-1452h-708v1720h319v-496h389c452 0 732-234 732-612 0-381-280-612-732-612zm-15 953h-374v-683h374c280 0 425 125 425 342 0 216-145 341-425 341zm2387 767h334l-777-1720h-314l-775 1720h330l169-398h861l172 398zm-925-649l322-752 325 752h-647zm1726-1071l-25 713c-17 484-81 739-290 739-27 0-49-2-73-9l-22 277c66 15 120 25 174 25 371 0 472-366 494-1045l15-430h678v1450h315v-1720h-1266zm2544 582h-477v-582h-314v1720h740c435 0 693-201 693-587 0-366-231-551-642-551zm-66 893h-411v-649h411c248 0 388 95 388 312 0 221-142 337-388 337zm2244-1475v710h-890v-710h-319v1720h319v-737h890v737h320v-1720h-320zm1595 582h-476v-582h-315v1720h740c435 0 693-201 693-587 0-366-231-551-642-551zm890 1138h315v-1720h-315v1720zm-956-245h-410v-649h410c248 0 389 95 389 312 0 221-143 337-389 337zm2522-1591c295 0 448-128 450-356h-221c-5 123-89 189-229 189-142 0-221-66-223-189h-224c2 228 150 356 447 356zm-764 1836h297l924-1219v1219h315v-1720h-297l-925 1221v-1221h-314v1720z" fill-rule="nonzero" fill="#163e73"/></g></g></svg>