<svg aria-hidden="true" style="position:absolute;width:0;height:0" xmlns="http://www.w3.org/2000/svg" overflow="hidden"><defs><symbol id="icon-library" viewBox="0 0 34 32"><path d="M32 30v-2h-2V16h2v-2h-6v2h2v12h-6V16h2v-2h-6v2h2v12h-6V16h2v-2h-6v2h2v12H6V16h2v-2H2v2h2v12H2v2H0v2h34v-2h-2zM16 0h2l16 10v2H0v-2L16 0z"/></symbol><symbol id="icon-mobile" viewBox="0 0 32 32"><path d="M23 0H9C7.35 0 6 1.35 6 3v26c0 1.65 1.35 3 3 3h14c1.65 0 3-1.35 3-3V3c0-1.65-1.35-3-3-3zM12 1.5h8v1h-8v-1zM16 30a2 2 0 11-.001-3.999A2 2 0 0116 30zm8-6H8V4h16v20z"/></symbol><symbol id="icon-double_arrow" viewBox="0 0 24 24"><path d="M8.484 5.016L13.5 12l-5.016 6.984h-4.5L9 12 3.984 5.016h4.5zm7.032 0L20.485 12l-4.969 6.984h-4.5L15.985 12l-4.969-6.984h4.5z"/></symbol></defs></svg>